# xmcd
#
# Track frame offsets: 
#        150
#        17519
#        34780
#        52220
#        71991
#        91911
#        113170
#        131900
#        150388
#        165863
#        189824
#        208603
#        225912
#        245176
#        261240
#        273932
#        288908
#        305142
#        321925
#
# Disc length: 4523 seconds
#
# Revision: 0
# Processed by: cddbd v1.5.2PL0 Copyright (c) Steve Scherf et al.
# Submitted via: ExactAudioCopyFreeDBPlugin 1.0
#
DISCID=0b11a913
DTITLE=John Austin - Collection One
DYEAR=2006
DGENRE=Alt. Rock
TTITLE0=Island Girl
TTITLE1=Farthest Thing From Love
TTITLE2=Say Goodbye
TTITLE3=Red Dog
TTITLE4=Heaven Is Inside
TTITLE5=Leave The Light On
TTITLE6=Using Moonlight
TTITLE7=In Your Mama's Dreams
TTITLE8=Shatta Dat Piñata
TTITLE9=Yellow Moon
TTITLE10=Face To Face
TTITLE11=Cool Morning
TTITLE12=Moonflowers
TTITLE13=Losing Oxygen
TTITLE14=Poverty Lines
TTITLE15=Whippoorwill (unreleased)
TTITLE16=Only The Strong
TTITLE17=These Things Take Time
TTITLE18=Island Girl 1990 (bonus track)
EXTD=
EXTT0=
EXTT1=
EXTT2=
EXTT3=
EXTT4=
EXTT5=
EXTT6=
EXTT7=
EXTT8=
EXTT9=
EXTT10=
EXTT11=
EXTT12=
EXTT13=
EXTT14=
EXTT15=
EXTT16=
EXTT17=
EXTT18=
PLAYORDER=
